<svg xmlns="http://www.w3.org/2000/svg" xmlns:xlink="http://www.w3.org/1999/xlink" width="500" zoomAndPan="magnify" viewBox="0 0 375 374.999991" height="500" preserveAspectRatio="xMidYMid meet" version="1.0"><path fill="#000000" d="M 187.484375 7.527344 C 88.261719 7.527344 7.527344 88.253906 7.527344 187.484375 C 7.53125 286.707031 88.257812 367.433594 187.480469 367.433594 C 286.703125 367.433594 367.433594 286.707031 367.433594 187.484375 C 367.433594 88.253906 286.703125 7.53125 187.480469 7.527344 Z M 187.484375 374.960938 C 84.105469 374.960938 0 290.859375 0 187.480469 C 0 84.101562 84.101562 0 187.480469 0 C 290.859375 0 374.964844 84.105469 374.964844 187.480469 C 374.964844 290.859375 290.859375 374.964844 187.484375 374.960938 Z M 187.484375 374.960938 " fill-opacity="1" fill-rule="evenodd"/><path fill="#000000" d="M 286.867188 249.222656 L 100.140625 249.222656 L 100.140625 140.800781 L 193.503906 217.597656 L 286.867188 140.800781 Z M 286.867188 249.222656 " fill-opacity="1" fill-rule="evenodd"/><path fill="#000000" d="M 192 125.738281 C 150.589844 125.738281 109.175781 125.742188 109.175781 125.742188 L 186.835938 195.011719 C 186.835938 195.011719 189.425781 197.3125 192 199.617188 C 194.574219 197.3125 197.164062 195.011719 197.164062 195.011719 L 274.820312 125.738281 C 274.820312 125.738281 233.410156 125.742188 192 125.738281 Z M 192 125.738281 " fill-opacity="1" fill-rule="evenodd"/></svg>